<?xml version="1.0" encoding="UTF-8" standalone="no"?>
<!-- Created with Inkscape (http://www.inkscape.org/) -->
<svg xmlns:ns="http://creativecommons.org/ns#" xmlns:dc="http://purl.org/dc/elements/1.1/" xmlns:cc="http://web.resource.org/cc/" xmlns:rdf="http://www.w3.org/1999/02/22-rdf-syntax-ns#" xmlns:svg="http://www.w3.org/2000/svg" xmlns="http://www.w3.org/2000/svg" xmlns:xlink="http://www.w3.org/1999/xlink" xmlns:sodipodi="http://sodipodi.sourceforge.net/DTD/sodipodi-0.dtd" xmlns:inkscape="http://www.inkscape.org/namespaces/inkscape" version="1.0" width="650" height="460" id="svg2" sodipodi:version="0.32" inkscape:version="0.45.1" sodipodi:docname="Epipolargeometrie3.svg" inkscape:output_extension="org.inkscape.output.svg.inkscape" sodipodi:docbase="/Users/rkuhn/Desktop">
  <metadata id="metadata2814">
    <rdf:RDF>
      <ns:Work rdf:about="">
        <dc:format>image/svg+xml</dc:format>
        <dc:type rdf:resource="http://purl.org/dc/dcmitype/StillImage"/>
      </ns:Work>
      <cc:Work rdf:about="">
        <dc:format>image/svg+xml</dc:format>
        <dc:type rdf:resource="http://purl.org/dc/dcmitype/StillImage"/>
      </cc:Work>
    </rdf:RDF>
  </metadata>
  <sodipodi:namedview inkscape:window-height="581" inkscape:window-width="761" inkscape:pageshadow="2" inkscape:pageopacity="0.0" guidetolerance="10.0" gridtolerance="10.0" objecttolerance="10.0" borderopacity="1.0" bordercolor="#666666" pagecolor="#ffffff" id="base" showgrid="false" inkscape:zoom="0.72621609" inkscape:cx="350.72205" inkscape:cy="200.76669" inkscape:current-layer="g2305" inkscape:window-x="0" inkscape:window-y="0"/>
  <defs id="defs4">
    <inkscape:perspective sodipodi:type="inkscape:persp3d" inkscape:vp_x="-50 : 600 : 1" inkscape:vp_y="0 : 1000 : 0" inkscape:vp_z="700 : 600 : 1" inkscape:persp3d-origin="300 : 400 : 1" id="perspective2816"/>
    <inkscape:perspective id="perspective2698" inkscape:persp3d-origin="300 : 400 : 1" inkscape:vp_z="700 : 600 : 1" inkscape:vp_y="0 : 1000 : 0" inkscape:vp_x="-50 : 600 : 1" sodipodi:type="inkscape:persp3d"/>
    <linearGradient id="linearGradient19967">
      <stop style="stop-color:#8ae234;stop-opacity:1" offset="0" id="stop19969"/>
      <stop style="stop-color:#8ae234;stop-opacity:0" offset="1" id="stop19971"/>
    </linearGradient>
    <linearGradient x1="387.5" y1="402.5" x2="387.5" y2="175.5" id="linearGradient19973" xlink:href="#linearGradient19967" gradientUnits="userSpaceOnUse" gradientTransform="matrix(0.967794,0,0,0.967794,-80.95911,-116.4866)"/>
    <linearGradient x1="387.5" y1="402.5" x2="387.5" y2="175.5" id="linearGradient5401" xlink:href="#linearGradient19967" gradientUnits="userSpaceOnUse" gradientTransform="matrix(0.967794,0,0,0.967794,-24.260625,-114.0602)"/>
    <linearGradient x1="387.5" y1="402.5" x2="387.5" y2="175.5" id="linearGradient5403" xlink:href="#linearGradient19967" gradientUnits="userSpaceOnUse" gradientTransform="matrix(0.967794,0,0,0.967794,-24.260625,-114.0602)"/>
    <linearGradient x1="387.5" y1="402.5" x2="387.5" y2="175.5" id="linearGradient5460" xlink:href="#linearGradient19967" gradientUnits="userSpaceOnUse" gradientTransform="matrix(0.967794,0,0,0.967794,-24.260625,-114.0602)"/>
  </defs>
  <g transform="matrix(1.0203158,0,0,1.0203158,-34.680976,-24.686557)" id="g5282">
    <rect width="637.7262" height="100.73929" x="34.604485" y="374.97498" style="opacity:1;fill:#eeeeec;fill-opacity:1;fill-rule:evenodd;stroke:#babdb6;stroke-width:1.47013307;stroke-linecap:round;stroke-linejoin:bevel;stroke-miterlimit:4;stroke-dasharray:none;stroke-dashoffset:0;stroke-opacity:1" id="rect3320"/>
    <g id="g5262">
      <path d="M 66.717123,406.3137 C 66.717123,409.49695 64.136577,412.0775 60.953325,412.0775 C 57.770073,412.0775 55.189527,409.49695 55.189527,406.3137 C 55.189527,403.13045 57.770073,400.5499 60.953325,400.5499 C 64.136577,400.5499 66.717123,403.13045 66.717123,406.3137 L 66.717123,406.3137 z " style="fill:#cc0000;fill-opacity:1;fill-rule:evenodd;stroke:#000000;stroke-width:2.66359735;stroke-linecap:round;stroke-linejoin:round;stroke-miterlimit:4;stroke-dasharray:none;stroke-dashoffset:0;stroke-opacity:1" id="path2321"/>
      <text x="75.953316" y="414.31369" style="font-size:28px;font-style:normal;font-variant:normal;font-weight:normal;font-stretch:normal;text-indent:0;text-align:start;text-decoration:none;line-height:125%;letter-spacing:normal;word-spacing:normal;text-transform:none;direction:ltr;block-progression:tb;writing-mode:tb-rl;text-anchor:start;opacity:1;color:#000000;fill:#000000;fill-opacity:1;fill-rule:nonzero;stroke:none;stroke-width:1px;stroke-linecap:butt;stroke-linejoin:miter;marker:none;marker-start:none;marker-mid:none;marker-end:none;stroke-miterlimit:4;stroke-dasharray:none;stroke-dashoffset:0;stroke-opacity:1;visibility:visible;display:inline;overflow:visible;font-family:Bitstream Vera Sans" id="text2323" xml:space="preserve"><tspan x="75.953316" y="414.31369" style="font-size:24px" id="tspan2325">Bildpunkt</tspan></text>
    </g>
    <g id="g5267">
      <path d="M 66.717123,443.3137 C 66.717123,446.49695 64.136577,449.0775 60.953325,449.0775 C 57.770073,449.0775 55.189527,446.49695 55.189527,443.3137 C 55.189527,440.13045 57.770073,437.5499 60.953325,437.5499 C 64.136577,437.5499 66.717123,440.13045 66.717123,443.3137 L 66.717123,443.3137 z " style="fill:#fce94f;fill-opacity:1;fill-rule:evenodd;stroke:#000000;stroke-width:2.66359735;stroke-linecap:round;stroke-linejoin:round;stroke-miterlimit:4;stroke-dasharray:none;stroke-dashoffset:0;stroke-opacity:1" id="path2319"/>
      <text x="75.953316" y="450.31369" style="font-size:28px;font-style:normal;font-variant:normal;font-weight:normal;font-stretch:normal;text-indent:0;text-align:start;text-decoration:none;line-height:125%;letter-spacing:normal;word-spacing:normal;text-transform:none;direction:ltr;block-progression:tb;writing-mode:tb-rl;text-anchor:start;opacity:1;color:#000000;fill:#000000;fill-opacity:1;fill-rule:nonzero;stroke:none;stroke-width:1px;stroke-linecap:butt;stroke-linejoin:miter;marker:none;marker-start:none;marker-mid:none;marker-end:none;stroke-miterlimit:4;stroke-dasharray:none;stroke-dashoffset:0;stroke-opacity:1;visibility:visible;display:inline;overflow:visible;font-family:Bitstream Vera Sans" id="text2327" xml:space="preserve"><tspan x="75.953316" y="450.31369" style="font-size:24px" id="tspan2329">Epipol</tspan></text>
    </g>
    <g id="g5272">
      <path d="M 269.12692,407.41676 L 297.69072,406.95099" style="fill:none;fill-opacity:0.75;fill-rule:evenodd;stroke:#cc0000;stroke-width:3.42781687;stroke-linecap:round;stroke-linejoin:round;stroke-miterlimit:4;stroke-dasharray:none;stroke-opacity:1" id="path2331"/>
      <text x="312.31256" y="414.96448" style="font-size:24px;font-style:normal;font-variant:normal;font-weight:normal;font-stretch:normal;text-indent:0;text-align:start;text-decoration:none;line-height:125%;letter-spacing:normal;word-spacing:normal;text-transform:none;direction:ltr;block-progression:tb;writing-mode:tb-rl;text-anchor:start;opacity:1;color:#000000;fill:#000000;fill-opacity:1;fill-rule:nonzero;stroke:none;stroke-width:1px;stroke-linecap:butt;stroke-linejoin:miter;marker:none;marker-start:none;marker-mid:none;marker-end:none;stroke-miterlimit:4;stroke-dasharray:none;stroke-dashoffset:0;stroke-opacity:1;visibility:visible;display:inline;overflow:visible;font-family:Bitstream Vera Sans" id="text2333" xml:space="preserve"><tspan x="312.31256" y="414.96448" id="tspan2337">Epipolarlinie</tspan></text>
    </g>
    <g id="g5277">
      <path d="M 282.457,442.37257 C 282.457,447.1193 286.305,450.9673 291.05173,450.9673 C 295.79846,450.9673 299.64646,447.1193 299.64646,442.37257 C 299.64646,437.62584 295.79846,433.77784 291.05173,433.77784 C 286.305,433.77784 282.457,437.62584 282.457,442.37257 L 282.457,442.37257 z " style="fill:#ffffff;fill-opacity:1;fill-rule:evenodd;stroke:#2e3436;stroke-width:3.15857434;stroke-linecap:round;stroke-linejoin:round;stroke-miterlimit:4;stroke-dasharray:none;stroke-dashoffset:0;stroke-opacity:1" id="path3312"/>
      <text x="312.8252" y="450.31982" style="font-size:24px;font-style:normal;font-variant:normal;font-weight:normal;font-stretch:normal;text-indent:0;text-align:start;text-decoration:none;line-height:125%;letter-spacing:normal;word-spacing:normal;text-transform:none;direction:ltr;block-progression:tb;writing-mode:tb-rl;text-anchor:start;opacity:1;color:#000000;fill:#000000;fill-opacity:1;fill-rule:nonzero;stroke:none;stroke-width:1px;stroke-linecap:butt;stroke-linejoin:miter;marker:none;marker-start:none;marker-mid:none;marker-end:none;stroke-miterlimit:4;stroke-dasharray:none;stroke-dashoffset:0;stroke-opacity:1;visibility:visible;display:inline;overflow:visible;font-family:Bitstream Vera Sans" id="text3314" xml:space="preserve"><tspan x="312.8252" y="450.31982" id="tspan3316">Kamera-Projektionszentrum</tspan></text>
    </g>
  </g>
  <g transform="translate(-32,-6)" id="g5462">
    <g id="g5301">
      <rect width="180.90884" height="115.86997" x="95.792732" y="107.39182" transform="matrix(0.9218364,0.3875792,0,1,0,0)" style="opacity:0.7;fill:#ffffff;fill-opacity:1;fill-rule:evenodd;stroke:#ffffff;stroke-width:3.43272376;stroke-linecap:round;stroke-linejoin:round;stroke-miterlimit:4;stroke-dasharray:none;stroke-dashoffset:0;stroke-opacity:1" id="rect5597"/>
      <rect width="180.90857" height="115.86997" x="95.792122" y="107.39182" transform="matrix(0.9218364,0.3875792,0,1,0,0)" style="opacity:0.4;fill:#729fcf;fill-opacity:1;fill-rule:evenodd;stroke:#3465a4;stroke-width:3.43272042;stroke-linecap:round;stroke-linejoin:round;stroke-miterlimit:4;stroke-dasharray:none;stroke-dashoffset:0;stroke-opacity:1" id="rect3773"/>
      <text x="79.107033" y="130.56483" style="font-size:246.80284119px;font-style:normal;font-weight:normal;fill:#000000;fill-opacity:1;stroke:none;stroke-width:1px;stroke-linecap:butt;stroke-linejoin:miter;stroke-opacity:1;font-family:Baekmuk Headline" id="text5561" xml:space="preserve"><tspan x="79.107033" y="130.56483" style="font-size:28px;font-weight:normal;text-align:start;text-anchor:start;font-family:Bitstream Vera Sans" id="tspan5563">Bild 1</tspan></text>
    </g>
    <g id="g5333">
      <path d="M 146.93152,234.09491 L 99.92902,275.656 L 198.26453,275.87023" style="fill:none;fill-opacity:0.75;fill-rule:evenodd;stroke:#000000;stroke-width:1.71390843;stroke-linecap:butt;stroke-linejoin:miter;stroke-miterlimit:4;stroke-dasharray:1.7139085, 1.7139085;stroke-dashoffset:0;stroke-opacity:1" id="path5595"/>
      <path d="M 147.598,233.84122 L 100.57348,275.4889 L 197.72973,275.4889 L 147.598,233.84122 z " style="opacity:0.33224757;fill:url(#linearGradient5403);fill-opacity:1;fill-rule:evenodd;stroke:none;stroke-width:1px;stroke-linecap:butt;stroke-linejoin:miter;stroke-opacity:1" id="path2249"/>
    </g>
    <path d="M 100.58483,275.47705 L 349.30797,55.787756 L 600.93449,275.47705 L 100.58483,275.47705 z " style="opacity:0.5;fill:url(#linearGradient5460);fill-opacity:1;fill-rule:evenodd;stroke:none;stroke-width:1px;stroke-linecap:butt;stroke-linejoin:miter;stroke-opacity:1" id="path17309"/>
    <path d="M 276.20942,341.33624 L 52.803618,156.57145" style="fill:none;fill-opacity:0.75;fill-rule:evenodd;stroke:#cc0000;stroke-width:3.04481459;stroke-linecap:round;stroke-linejoin:round;stroke-miterlimit:4;stroke-dasharray:none;stroke-opacity:1" id="path2700"/>
    <path d="M 198.33206,275.96096 L 503.18727,275.96096" style="fill:none;fill-opacity:0.75;fill-rule:evenodd;stroke:#000000;stroke-width:1.9355886;stroke-linecap:butt;stroke-linejoin:miter;stroke-miterlimit:4;stroke-dasharray:1.93558862, 1.93558862;stroke-dashoffset:0;stroke-opacity:1" id="path11928"/>
    <path d="M 155.74911,226.11954 L 350.27577,55.303856 L 545.77021,226.60344" style="fill:none;fill-opacity:0.75;fill-rule:evenodd;stroke:#000000;stroke-width:1.9355886;stroke-linecap:butt;stroke-linejoin:miter;stroke-miterlimit:4;stroke-dasharray:1.93558862, 3.87117725;stroke-dashoffset:0;stroke-opacity:1" id="path14585"/>
    <g id="g5337">
      <path d="M 358.33754,55.633086 C 358.33754,60.031246 354.77212,63.596676 350.37395,63.596676 C 345.97579,63.596676 342.41037,60.031246 342.41037,55.633086 C 342.41037,51.234926 345.97579,47.669506 350.37395,47.669506 C 354.77212,47.669506 358.33754,51.234926 358.33754,55.633086 L 358.33754,55.633086 z " style="fill:#000000;fill-opacity:1;fill-rule:evenodd;stroke:none;stroke-width:2;stroke-linecap:round;stroke-linejoin:round;stroke-miterlimit:4;stroke-dasharray:none;stroke-dashoffset:0;stroke-opacity:1" id="path6484"/>
      <text x="309.96649" y="46.559658" style="font-size:246.80284119px;font-style:normal;font-weight:normal;fill:#000000;fill-opacity:1;stroke:none;stroke-width:1px;stroke-linecap:butt;stroke-linejoin:miter;stroke-opacity:1;font-family:Baekmuk Headline" id="text7371" xml:space="preserve"><tspan x="309.96649" y="46.559658" style="font-size:34.27817154px;font-weight:normal;font-family:Bitstream Vera Sans" id="tspan7373">X</tspan></text>
    </g>
    <g id="g5313">
      <path d="M 310.09705,90.339647 L 601.88999,275.87023" style="fill:none;fill-opacity:0.75;fill-rule:evenodd;stroke:#888a85;stroke-width:1.71390843;stroke-linecap:butt;stroke-linejoin:miter;stroke-miterlimit:4;stroke-dasharray:1.7139085, 3.42781698;stroke-dashoffset:0;stroke-opacity:1" id="path8287"/>
      <path d="M 271.73682,123.83068 L 601.03302,275.44176" style="fill:none;fill-opacity:0.75;fill-rule:evenodd;stroke:#888a85;stroke-width:1.71390843;stroke-linecap:butt;stroke-linejoin:miter;stroke-miterlimit:4;stroke-dasharray:1.7139085, 3.42781698;stroke-dashoffset:0;stroke-opacity:1" id="path8289"/>
      <path d="M 234.16741,157.76434 L 601.03302,275.44176" style="fill:none;fill-opacity:0.75;fill-rule:evenodd;stroke:#888a85;stroke-width:1.71390843;stroke-linecap:butt;stroke-linejoin:miter;stroke-miterlimit:4;stroke-dasharray:1.7139085, 3.42781698;stroke-dashoffset:0;stroke-opacity:1" id="path8306"/>
      <path d="M 316.13749,90.901447 C 316.13749,94.128282 313.52161,96.744172 310.29476,96.744172 C 307.06791,96.744172 304.45203,94.128282 304.45203,90.901447 C 304.45203,87.674597 307.06791,85.058717 310.29476,85.058717 C 313.52161,85.058717 316.13749,87.674597 316.13749,90.901447 L 316.13749,90.901447 z " style="fill:#888a85;fill-opacity:1;fill-rule:evenodd;stroke:none;stroke-width:2;stroke-linecap:round;stroke-linejoin:round;stroke-miterlimit:4;stroke-dasharray:none;stroke-dashoffset:0;stroke-opacity:1" id="path8281"/>
      <path d="M 277.93439,124.30904 C 277.93439,127.53588 275.31851,130.15177 272.09166,130.15177 C 268.86481,130.15177 266.24893,127.53588 266.24893,124.30904 C 266.24893,121.08219 268.86481,118.46631 272.09166,118.46631 C 275.31851,118.46631 277.93439,121.08219 277.93439,124.30904 L 277.93439,124.30904 z " style="fill:#888a85;fill-opacity:1;fill-rule:evenodd;stroke:none;stroke-width:2;stroke-linecap:round;stroke-linejoin:round;stroke-miterlimit:4;stroke-dasharray:none;stroke-dashoffset:0;stroke-opacity:1" id="path8283"/>
      <path d="M 240.44739,157.55434 C 240.44739,160.78118 237.83151,163.39707 234.60466,163.39707 C 231.37781,163.39707 228.76193,160.78118 228.76193,157.55434 C 228.76193,154.32749 231.37781,151.71161 234.60466,151.71161 C 237.83151,151.71161 240.44739,154.32749 240.44739,157.55434 L 240.44739,157.55434 z " style="fill:#888a85;fill-opacity:1;fill-rule:evenodd;stroke:none;stroke-width:2;stroke-linecap:round;stroke-linejoin:round;stroke-miterlimit:4;stroke-dasharray:none;stroke-dashoffset:0;stroke-opacity:1" id="path8285"/>
    </g>
    <g id="g5307">
      <rect width="180.90878" height="115.86997" x="-668.38605" y="400.03818" transform="matrix(-0.9218364,0.3875792,0,1,0,0)" style="opacity:0.7;fill:#ffffff;fill-opacity:1;fill-rule:evenodd;stroke:#ffffff;stroke-width:3.43272281;stroke-linecap:round;stroke-linejoin:round;stroke-miterlimit:4;stroke-dasharray:none;stroke-dashoffset:0;stroke-opacity:1" id="rect8264"/>
      <rect width="180.90851" height="115.86997" x="-668.38672" y="400.03818" transform="matrix(-0.9218364,0.3875792,0,1,0,0)" style="opacity:0.4;fill:#729fcf;fill-opacity:1;fill-rule:evenodd;stroke:#3465a4;stroke-width:3.43271971;stroke-linecap:round;stroke-linejoin:round;stroke-miterlimit:4;stroke-dasharray:none;stroke-dashoffset:0;stroke-opacity:1" id="rect8266"/>
      <text x="621.5708" y="129.56483" style="font-size:246.80284119px;font-style:normal;font-weight:normal;fill:#000000;fill-opacity:1;stroke:none;stroke-width:1px;stroke-linecap:butt;stroke-linejoin:miter;stroke-opacity:1;font-family:Baekmuk Headline" id="text15472" xml:space="preserve"><tspan x="621.5708" y="129.56483" style="font-size:28px;font-weight:normal;text-align:end;text-anchor:end;font-family:Bitstream Vera Sans" id="tspan15474">Bild 2 </tspan></text>
    </g>
    <g id="g5329">
      <path d="M 554.58817,235.16168 L 503.63598,275.4889 L 600.94848,275.4889 L 554.58817,235.16168 z " style="opacity:0.33224757;fill:url(#linearGradient5401);fill-opacity:1;fill-rule:evenodd;stroke:none;stroke-width:1px;stroke-linecap:butt;stroke-linejoin:miter;stroke-opacity:1" id="path2254"/>
      <path d="M 554.3394,234.80201 L 601.69545,275.656 L 503.35995,275.87023" style="fill:none;fill-opacity:0.75;fill-rule:evenodd;stroke:#000000;stroke-width:1.71390843;stroke-linecap:butt;stroke-linejoin:miter;stroke-miterlimit:4;stroke-dasharray:1.7139085, 1.7139085;stroke-dashoffset:0;stroke-opacity:1" id="path8268"/>
    </g>
    <path d="M 419.2576,344.23656 L 671.17495,138.51269" style="fill:none;fill-opacity:0.75;fill-rule:evenodd;stroke:#cc0000;stroke-width:3.42781687;stroke-linecap:round;stroke-linejoin:round;stroke-miterlimit:4;stroke-dasharray:none;stroke-opacity:1" id="path8293"/>
    <path d="M 497.40493,276.22298 C 497.40493,279.40623 499.98548,281.98678 503.16873,281.98678 C 506.35198,281.98678 508.93253,279.40623 508.93253,276.22298 C 508.93253,273.03973 506.35198,270.45918 503.16873,270.45918 C 499.98548,270.45918 497.40493,273.03973 497.40493,276.22298 L 497.40493,276.22298 z " style="fill:#fce94f;fill-opacity:1;fill-rule:evenodd;stroke:#000000;stroke-width:2.66359735;stroke-linecap:round;stroke-linejoin:round;stroke-miterlimit:4;stroke-dasharray:none;stroke-dashoffset:0;stroke-opacity:1" id="path8272"/>
    <g transform="matrix(1.713908,0,0,1.713908,-310.20965,-589.20461)" id="g8324">
      <text x="250.75168" y="467.55655" style="font-size:144px;font-style:normal;font-weight:normal;fill:#000000;fill-opacity:1;stroke:none;stroke-width:1px;stroke-linecap:butt;stroke-linejoin:miter;stroke-opacity:1;font-family:Baekmuk Headline" id="text8316" xml:space="preserve"><tspan x="250.75168" y="467.55655" style="font-size:20px;font-weight:normal;font-family:Bitstream Vera Sans" id="tspan8318">x</tspan></text>
      <text x="262.11603" y="473.53156" style="font-size:113.65291595px;font-style:normal;font-weight:normal;fill:#2e3436;fill-opacity:1;stroke:none;stroke-width:1px;stroke-linecap:butt;stroke-linejoin:miter;stroke-opacity:1;font-family:Baekmuk Headline" id="text8320" xml:space="preserve"><tspan x="262.11603" y="473.53156" style="font-size:9.47107697px;font-weight:bold;fill:#2e3436;font-family:Bitstream Vera Sans" id="tspan8322">L</tspan></text>
    </g>
    <path d="M 91.996414,275.84358 C 91.996414,280.59031 95.844416,284.43831 100.59115,284.43831 C 105.33788,284.43831 109.18588,280.59031 109.18588,275.84358 C 109.18588,271.09685 105.33788,267.24885 100.59115,267.24885 C 95.844416,267.24885 91.996414,271.09685 91.996414,275.84358 L 91.996414,275.84358 z " style="fill:#ffffff;fill-opacity:1;fill-rule:evenodd;stroke:#2e3436;stroke-width:3.1585741;stroke-linecap:round;stroke-linejoin:round;stroke-miterlimit:4;stroke-dasharray:none;stroke-dashoffset:0;stroke-opacity:1" id="path2265"/>
    <text x="353.61783" y="247.12602" style="font-size:28px;font-style:normal;font-variant:normal;font-weight:normal;font-stretch:normal;text-indent:0;text-align:start;text-decoration:none;line-height:125%;letter-spacing:normal;word-spacing:normal;text-transform:none;direction:ltr;block-progression:tb;writing-mode:tb-rl;text-anchor:start;fill:#000000;fill-opacity:1;fill-rule:nonzero;stroke:none;stroke-width:1px;stroke-linecap:butt;stroke-linejoin:miter;marker:none;marker-start:none;marker-mid:none;marker-end:none;stroke-miterlimit:4;stroke-dasharray:none;stroke-dashoffset:0;stroke-opacity:1;visibility:visible;display:inline;overflow:visible;font-family:Bitstream Vera Sans" id="text2273" xml:space="preserve"><tspan x="353.61783" y="247.12602" style="font-size:24px;text-align:center;text-anchor:middle" id="tspan2275">Epipolarebene</tspan></text>
    <path d="M 560.31722,233.9372 C 560.31722,237.12045 557.73667,239.701 554.55342,239.701 C 551.37017,239.701 548.78962,237.12045 548.78962,233.9372 C 548.78962,230.75395 551.37017,228.1734 554.55342,228.1734 C 557.73667,228.1734 560.31722,230.75395 560.31722,233.9372 L 560.31722,233.9372 z " style="fill:#cc0000;fill-opacity:1;fill-rule:evenodd;stroke:#000000;stroke-width:2.66359735;stroke-linecap:round;stroke-linejoin:round;stroke-miterlimit:4;stroke-dasharray:none;stroke-dashoffset:0;stroke-opacity:1" id="path2279"/>
    <g transform="matrix(1.713908,0,0,1.713908,91.286267,-597.35112)" id="g2305">
      <text x="250.75168" y="467.55655" style="font-size:144px;font-style:normal;font-weight:normal;fill:#000000;fill-opacity:1;stroke:none;stroke-width:1px;stroke-linecap:butt;stroke-linejoin:miter;stroke-opacity:1;font-family:Baekmuk Headline" id="text2307" xml:space="preserve"><tspan x="250.75168" y="467.55655" style="font-size:20px;font-weight:normal;font-family:Bitstream Vera Sans" id="tspan2309">x</tspan></text>
      <text x="262.11603" y="473.53156" style="font-size:113.65291595px;font-style:normal;font-weight:normal;fill:#2e3436;fill-opacity:1;stroke:none;stroke-width:1px;stroke-linecap:butt;stroke-linejoin:miter;stroke-opacity:1;font-family:Baekmuk Headline" id="text2311" xml:space="preserve"><tspan x="262.11603" y="473.53156" style="font-size:9.47107697px;font-weight:bold;fill:#2e3436;font-family:Bitstream Vera Sans" id="tspan2313">R</tspan></text>
    </g>
    <g id="g5321">
      <path d="M 547.04475,240.92888 L 601.69545,275.656" style="fill:none;fill-opacity:0.75;fill-rule:evenodd;stroke:#555753;stroke-width:1.71390843;stroke-linecap:butt;stroke-linejoin:miter;stroke-miterlimit:4;stroke-dasharray:1.7139085, 1.7139085;stroke-dashoffset:0;stroke-opacity:1" id="path8310"/>
      <path d="M 539.69624,247.08794 L 601.69545,275.656" style="fill:none;fill-opacity:0.75;fill-rule:evenodd;stroke:#555753;stroke-width:1.71390843;stroke-linecap:butt;stroke-linejoin:miter;stroke-miterlimit:4;stroke-dasharray:1.7139085, 1.7139085;stroke-dashoffset:0;stroke-opacity:1" id="path8312"/>
      <path d="M 531.85488,253.49343 L 601.69545,275.656" style="fill:none;fill-opacity:0.75;fill-rule:evenodd;stroke:#555753;stroke-width:1.71390843;stroke-linecap:butt;stroke-linejoin:miter;stroke-miterlimit:4;stroke-dasharray:1.7139085, 1.7139085;stroke-dashoffset:0;stroke-opacity:1" id="path8314"/>
      <path d="M 527.56314,252.99498 C 527.56314,254.79357 529.02119,256.25162 530.81978,256.25162 C 532.61837,256.25162 534.07642,254.79357 534.07642,252.99498 C 534.07642,251.19639 532.61837,249.73834 530.81978,249.73834 C 529.02119,249.73834 527.56314,251.19639 527.56314,252.99498 L 527.56314,252.99498 z " style="fill:#2e3436;fill-opacity:1;fill-rule:evenodd;stroke:none;stroke-width:2;stroke-linecap:round;stroke-linejoin:round;stroke-miterlimit:4;stroke-dasharray:none;stroke-dashoffset:0;stroke-opacity:1" id="path8300"/>
      <path d="M 535.7971,246.61864 C 535.7971,248.41723 537.25515,249.87528 539.05374,249.87528 C 540.85233,249.87528 542.31038,248.41723 542.31038,246.61864 C 542.31038,244.82005 540.85233,243.362 539.05374,243.362 C 537.25515,243.362 535.7971,244.82005 535.7971,246.61864 L 535.7971,246.61864 z " style="fill:#2e3436;fill-opacity:1;fill-rule:evenodd;stroke:none;stroke-width:2;stroke-linecap:round;stroke-linejoin:round;stroke-miterlimit:4;stroke-dasharray:none;stroke-dashoffset:0;stroke-opacity:1" id="path8302"/>
      <path d="M 543.26031,240.40762 C 543.26031,242.20621 544.71836,243.66426 546.51695,243.66426 C 548.31554,243.66426 549.77359,242.20621 549.77359,240.40762 C 549.77359,238.60903 548.31554,237.15098 546.51695,237.15098 C 544.71836,237.15098 543.26031,238.60903 543.26031,240.40762 L 543.26031,240.40762 z " style="fill:#2e3436;fill-opacity:1;fill-rule:evenodd;stroke:none;stroke-width:2;stroke-linecap:round;stroke-linejoin:round;stroke-miterlimit:4;stroke-dasharray:none;stroke-dashoffset:0;stroke-opacity:1" id="path8304"/>
    </g>
    <path d="M 593.99642,275.84358 C 593.99642,280.59031 597.84442,284.43831 602.59115,284.43831 C 607.33788,284.43831 611.18588,280.59031 611.18588,275.84358 C 611.18588,271.09685 607.33788,267.24885 602.59115,267.24885 C 597.84442,267.24885 593.99642,271.09685 593.99642,275.84358 L 593.99642,275.84358 z " style="fill:#ffffff;fill-opacity:1;fill-rule:evenodd;stroke:#2e3436;stroke-width:3.15857434;stroke-linecap:round;stroke-linejoin:round;stroke-miterlimit:4;stroke-dasharray:none;stroke-dashoffset:0;stroke-opacity:1" id="path3310"/>
    <path d="M 152.786,234.29075 C 152.786,237.474 150.20545,240.05455 147.0222,240.05455 C 143.83895,240.05455 141.2584,237.474 141.2584,234.29075 C 141.2584,231.1075 143.83895,228.52695 147.0222,228.52695 C 150.20545,228.52695 152.786,231.1075 152.786,234.29075 L 152.786,234.29075 z " style="fill:#cc0000;fill-opacity:1;fill-rule:evenodd;stroke:#000000;stroke-width:2.66359735;stroke-linecap:round;stroke-linejoin:round;stroke-miterlimit:4;stroke-dasharray:none;stroke-dashoffset:0;stroke-opacity:1" id="path7375"/>
    <path d="M 204.21963,276.22298 C 204.21963,279.40623 201.63908,281.98678 198.45583,281.98678 C 195.27258,281.98678 192.69203,279.40623 192.69203,276.22298 C 192.69203,273.03973 195.27258,270.45918 198.45583,270.45918 C 201.63908,270.45918 204.21963,273.03973 204.21963,276.22298 L 204.21963,276.22298 z " style="fill:#fce94f;fill-opacity:1;fill-rule:evenodd;stroke:#000000;stroke-width:2.66359735;stroke-linecap:round;stroke-linejoin:round;stroke-miterlimit:4;stroke-dasharray:none;stroke-dashoffset:0;stroke-opacity:1" id="path7377"/>
  </g>
</svg>