<?xml version="1.0" encoding="UTF-8"?>
<!DOCTYPE svg PUBLIC "-//W3C//DTD SVG 1.1//EN" "http://www.w3.org/Graphics/SVG/1.1/DTD/svg11.dtd">
<svg version="1.1" xmlns="http://www.w3.org/2000/svg" xmlns:xlink="http://www.w3.org/1999/xlink" font-family="Arial" font-size="13" width="355" height="562">
	<desc>UML diagram model</desc>
	<g id="_OkkzE9rhEeSpEswBeJxMRQ">
		<defs>
			<linearGradient id="greyGradient" x1="0%" y1="0%" x2="0%" y2="100%" spreadMethod="pad">
				<stop offset="0%" stop-color="#FFFFFF" stop-opacity="1"/>
				<stop offset="100%" stop-color="#E5E5E5" stop-opacity="1"/>
				
			</linearGradient>
			<linearGradient id="packageGradient" x1="0%" y1="0%" x2="0%" y2="100%" spreadMethod="pad">
				<stop offset="0%" stop-color="#FFFFFF" stop-opacity="1"/>
				<stop offset="100%" stop-color="#EFE9DE" stop-opacity="1"/>
				
			</linearGradient>
			
		</defs>
		<g id="_QWwrob0PEDK0acsAXJt-mQ">
			<ellipse cx="175" cy="12" rx="10" ry="10" fill="#4D4D4D" stroke="#000" stroke-width="1.0"/>
			
		</g>
		<g id="_Q1pAAL0PEDK0acsAXJt-mQ">
			<rect x="125" y="272" width="100" height="35" rx="10" ry="0" fill="url(#packageGradient)" stroke="#c2b79f" stroke-width="1"/>
			<text x="175" y="294" text-anchor="middle" font-style="normal" fill="#806221">process image</text>
			
		</g>
		<g id="_UEp5sL0PEDK0acsAXJt-mQ">
			<rect x="135" y="352" width="90" height="35" rx="10" ry="0" fill="url(#packageGradient)" stroke="#c2b79f" stroke-width="1"/>
			<text x="180" y="374" text-anchor="middle" font-style="normal" fill="#806221">process line</text>
			
		</g>
		<g id="_BdI5EL0cEDK0acsAXJt-mQ">
			<rect x="85" y="192" width="176" height="35" rx="10" ry="0" fill="url(#packageGradient)" stroke="#c2b79f" stroke-width="1"/>
			<text x="173" y="214" text-anchor="middle" font-style="normal" fill="#806221">update device configuration</text>
			
		</g>
		<g id="_JC0RAL0cEDK0acsAXJt-mQ">
			<rect x="125" y="112" width="99" height="35" rx="10" ry="0" fill="url(#packageGradient)" stroke="#c2b79f" stroke-width="1"/>
			<text x="175" y="134" text-anchor="middle" font-style="normal" fill="#806221">get next image</text>
			
		</g>
		<g id="_M3p0kL0cEDK0acsAXJt-mQ" transform="translate(176, 412)">
			<g transform="rotate(45)">
				<rect x="0" y="0" width="18" height="18" rx="0" ry="0" fill="url(#greyGradient)" stroke="#888" stroke-width="1"/>
				
			</g>
			
		</g>
		<g id="_OSW4AL0cEDK0acsAXJt-mQ">
			<ellipse cx="175" cy="502" rx="10" ry="10" fill="#FFF" stroke="#888" stroke-width="1.0"/>
			<ellipse cx="175" cy="502" rx="6" ry="6" fill="#4D4D4D" stroke-width="0.0"/>
			
		</g>
		<g id="_TQhbIL0cEDK0acsAXJt-mQ" transform="translate(176, 62)">
			<g transform="rotate(45)">
				<rect x="0" y="0" width="18" height="18" rx="0" ry="0" fill="url(#greyGradient)" stroke="#888" stroke-width="1"/>
				
			</g>
			
		</g>
		<g id="_g_-NsL0cEDK0acsAXJt-mQ">
			<polygon fill="#FFFFFF" stroke-width="1" stroke="#CCCCCC" points="205,402 205,442 310,442 310,417 295,402 "/>
			<text x="209" y="407" fill="#2D2D2D">
				<tspan x="209" y="419" font-size="12">more images</tspan>
				<tspan x="209" y="431" font-size="12">available</tspan>
				
			</text>
			<polygon fill="#CCCCCC" stroke-width="1" stroke="#CCCCCC" points="295,402 295,417 310,417 "/>
			
		</g>
		<g id="_ZI2MUL0PEDK0acsAXJt-mQ">
			<polyline fill="none" stroke-width="1" stroke="#000000" points="173,307 173,331"/>
			
		</g>
		<g id="_ZI2MUL0PEDK0acsAXJt-mQ">
			<polyline fill="none" stroke-width="1" stroke="#000000" points="173,331 173,330"/>
			
		</g>
		<g id="_ZI2MUL0PEDK0acsAXJt-mQ">
			<polyline fill="none" stroke-width="1" stroke="#000000" points="173,330 173,352"/>
			<g transform="translate(173,352)">
				<g transform="rotate(-180)">
					<polyline fill="none" stroke-width="1" stroke="#000000" points="-4,8 0,0 4,8"/>
					
				</g>
				
			</g>
			
		</g>
		<g id="_PylUoL0cEDK0acsAXJt-mQ">
			<polyline fill="none" stroke-width="1" stroke="#000000" points="175,147 175,171"/>
			
		</g>
		<g id="_PylUoL0cEDK0acsAXJt-mQ">
			<polyline fill="none" stroke-width="1" stroke="#000000" points="175,171 175,170"/>
			
		</g>
		<g id="_PylUoL0cEDK0acsAXJt-mQ">
			<polyline fill="none" stroke-width="1" stroke="#000000" points="175,170 175,192"/>
			<g transform="translate(175,192)">
				<g transform="rotate(-180)">
					<polyline fill="none" stroke-width="1" stroke="#000000" points="-4,8 0,0 4,8"/>
					
				</g>
				
			</g>
			
		</g>
		<g id="_P9dH4L0cEDK0acsAXJt-mQ">
			<polyline fill="none" stroke-width="1" stroke="#000000" points="175,227 175,251"/>
			
		</g>
		<g id="_P9dH4L0cEDK0acsAXJt-mQ">
			<polyline fill="none" stroke-width="1" stroke="#000000" points="175,251 175,250"/>
			
		</g>
		<g id="_P9dH4L0cEDK0acsAXJt-mQ">
			<polyline fill="none" stroke-width="1" stroke="#000000" points="175,250 175,272"/>
			<g transform="translate(175,272)">
				<g transform="rotate(-180)">
					<polyline fill="none" stroke-width="1" stroke="#000000" points="-4,8 0,0 4,8"/>
					
				</g>
				
			</g>
			
		</g>
		<g id="_QOgboL0cEDK0acsAXJt-mQ">
			<polyline fill="none" stroke-width="1" stroke="#000000" points="176,387 176,401"/>
			
		</g>
		<g id="_QOgboL0cEDK0acsAXJt-mQ">
			<polyline fill="none" stroke-width="1" stroke="#000000" points="176,401 176,400"/>
			
		</g>
		<g id="_QOgboL0cEDK0acsAXJt-mQ">
			<polyline fill="none" stroke-width="1" stroke="#000000" points="176,400 176,412"/>
			<g transform="translate(176,412)">
				<g transform="rotate(-180)">
					<polyline fill="none" stroke-width="1" stroke="#000000" points="-4,8 0,0 4,8"/>
					
				</g>
				
			</g>
			
		</g>
		<g id="_QYv8wb0cEDK0acsAXJt-mQ">
			<polyline fill="none" stroke-width="1" stroke="#000000" points="175,434 175,463"/>
			
		</g>
		<g id="_QYv8wb0cEDK0acsAXJt-mQ">
			<polyline fill="none" stroke-width="1" stroke="#000000" points="175,463 175,463"/>
			
		</g>
		<g id="_QYv8wb0cEDK0acsAXJt-mQ">
			<polyline fill="none" stroke-width="1" stroke="#000000" points="175,463 175,492"/>
			<g transform="translate(175,492)">
				<g transform="rotate(-180)">
					<polyline fill="none" stroke-width="1" stroke="#000000" points="-4,8 0,0 4,8"/>
					
				</g>
				
			</g>
			
		</g>
		<g id="_TreRwL0cEDK0acsAXJt-mQ">
			<polyline fill="none" stroke-width="1" stroke="#000000" points="175,22 175,42"/>
			
		</g>
		<g id="_TreRwL0cEDK0acsAXJt-mQ">
			<polyline fill="none" stroke-width="1" stroke="#000000" points="175,42 175,42"/>
			
		</g>
		<g id="_TreRwL0cEDK0acsAXJt-mQ">
			<polyline fill="none" stroke-width="1" stroke="#000000" points="175,42 175,62"/>
			<g transform="translate(175,62)">
				<g transform="rotate(-180)">
					<polyline fill="none" stroke-width="1" stroke="#000000" points="-4,8 0,0 4,8"/>
					
				</g>
				
			</g>
			
		</g>
		<g id="_T1yrYL0cEDK0acsAXJt-mQ">
			<polyline fill="none" stroke-width="1" stroke="#000000" points="176,84 176,98"/>
			
		</g>
		<g id="_T1yrYL0cEDK0acsAXJt-mQ">
			<polyline fill="none" stroke-width="1" stroke="#000000" points="176,98 176,98"/>
			
		</g>
		<g id="_T1yrYL0cEDK0acsAXJt-mQ">
			<polyline fill="none" stroke-width="1" stroke="#000000" points="176,98 176,112"/>
			<g transform="translate(176,112)">
				<g transform="rotate(-180)">
					<polyline fill="none" stroke-width="1" stroke="#000000" points="-4,8 0,0 4,8"/>
					
				</g>
				
			</g>
			
		</g>
		<g id="_UIeW0L0cEDK0acsAXJt-mQ">
			<polyline fill="none" stroke-width="1" stroke="#000000" points="165,423 50,423"/>
			
		</g>
		<g id="_UIeW0L0cEDK0acsAXJt-mQ">
			<polyline fill="none" stroke-width="1" stroke="#000000" points="50,423 50,73"/>
			
		</g>
		<g id="_UIeW0L0cEDK0acsAXJt-mQ">
			<polyline fill="none" stroke-width="1" stroke="#000000" points="50,73 165,73"/>
			<g transform="translate(165,73)">
				<g transform="rotate(90)">
					<polyline fill="none" stroke-width="1" stroke="#000000" points="-4,8 0,0 4,8"/>
					
				</g>
				
			</g>
			
		</g>
		<g>
			<polyline fill="none" stroke-width="1" stroke="#000000" points="187,422 205,422" stroke-dasharray="1, 2"/>
			
		</g>
		<g>
			<rect x="175" y="452" width="31" height="21" rx="0" ry="0" fill="#FFF" stroke-width="0"/>
			<text x="175" y="452" fill="#000000">[ no ]</text>
			
		</g>
		<g>
			<rect x="95" y="402" width="38" height="21" rx="0" ry="0" fill="#FFF" stroke-width="0"/>
			<text x="95" y="402" fill="#000000">[ yes ]</text>
			
		</g>
		
	</g>
	
</svg>